<?xml version="1.0" encoding="UTF-8" standalone="no"?>
<svg
   xmlns:dc="http://purl.org/dc/elements/1.1/"
   xmlns:cc="http://creativecommons.org/ns#"
   xmlns:rdf="http://www.w3.org/1999/02/22-rdf-syntax-ns#"
   xmlns:svg="http://www.w3.org/2000/svg"
   xmlns="http://www.w3.org/2000/svg"
   id="svg21"
   viewBox="0 0 20637.627 25412.313"
   style="clip-rule:evenodd;fill-rule:evenodd;image-rendering:optimizeQuality;shape-rendering:geometricPrecision;text-rendering:geometricPrecision"
   version="1.1"
   height="960.46539"
   width="780.00476"
   xml:space="preserve"><metadata
   id="metadata25"><rdf:RDF><cc:Work
       rdf:about=""><dc:format>image/svg+xml</dc:format><dc:type
         rdf:resource="http://purl.org/dc/dcmitype/StillImage" /><dc:title></dc:title></cc:Work></rdf:RDF></metadata>
 <defs
   id="defs4">
  <style
   id="style2"
   type="text/css">
   <![CDATA[
    .fil2 {fill:#57F674}
    .fil1 {fill:#57F674}
    .fil0 {fill:#FAFDFC}
   ]]>
  </style>
 </defs>
 <g
   transform="translate(-6596.3399,-6977.5866)"
   id="Capa_x0020_1">
  <metadata
   id="CorelCorpID_0Corel-Layer" />
  <g
   id="_2487239745328">
   <path
   style="fill:#fafdfc"
   id="path7"
   d="m 9813,21251 c 80,417 -109,1066 188,2326 165,704 388,1250 701,1838 136,258 -2,473 -129,955 -88,334 -177,664 -271,997 l -541,2000 c 364,-60 790,-203 1153,-295 l 2320,-606 c 583,-145 237,-134 1079,217 2244,937 4959,695 6967,-710 651,-456 1031,-829 1527,-1400 763,-878 1634,-2612 1660,-4228 29,-2430 -693,-4066 -1904,-5368 -1263,-1357 -2876,-2230 -4887,-2379 -1556,-115 -3104,280 -4366,1066 -1471,917 -2669,2374 -3170,4096 -209,721 -227,1171 -293,1409 -24,87 -7,40 -34,82 z"
   class="fil0" />
   <path
   style="fill:#57f674"
   id="path9"
   d="m 27217,23335 c -22,-39 -9,14 -28,-83 l -13,-1053 h -2639 l -70,146 c -26,1616 -897,3350 -1660,4228 -496,571 -876,944 -1527,1400 -2008,1405 -4723,1647 -6967,710 -842,-351 -496,-362 -1079,-217 l -2320,606 c -363,92 -789,235 -1153,295 l 541,-2000 c 94,-333 183,-663 271,-997 127,-482 265,-697 129,-955 -313,-588 -536,-1134 -701,-1838 -297,-1260 -108,-1909 -188,-2326 l -31,-139 H 6614 c 42,804 3,1717 2,2534 0,846 -1,1693 -1,2540 -2,1684 -103,3120 734,4380 627,944 1687,1682 3330,1785 1155,72 3802,22 5109,22 1705,0 3410,0 5115,0 1615,0 3236,148 4442,-686 526,-365 902,-714 1247,-1294 353,-591 520,-1206 577,-1991 121,-1679 -31,-3398 48,-5067 z"
   class="fil1" />
   <path
   style="fill:#57f674"
   id="path11"
   d="m 6614,21112 h 3168 l 31,139 c 27,-42 10,5 34,-82 66,-238 84,-688 293,-1409 501,-1722 1699,-3179 3170,-4096 1262,-786 2810,-1181 4366,-1066 2011,149 3624,1022 4887,2379 1211,1302 1933,2938 1904,5368 l 70,-146 h 2639 l 13,1053 c 19,97 6,44 28,83 35,-834 5,-1741 5,-2582 -1,-870 -2,-1741 -2,-2611 -2,-1695 117,-3211 -698,-4489 -631,-989 -1683,-1736 -3328,-1848 -1649,-111 -3476,-46 -5148,-46 -1729,0 -3458,0 -5186,0 -1731,0 -3172,-103 -4436,748 -2031,1367 -1811,3617 -1812,5988 -1,851 -36,1775 2,2617 z"
   class="fil2" />
   <path
   style="fill:#57f674"
   id="path13"
   d="m 11148,20830 c 429,3 2054,-53 2342,27 -53,-623 -139,-855 108,-1449 128,-307 513,-801 825,-865 791,-161 844,184 1029,640 76,186 471,1087 468,1215 -8,417 -667,734 -598,1052 79,362 858,1158 1132,1424 255,248 1383,968 1662,885 113,-34 553,-591 654,-731 344,-478 551,-52 1576,342 104,-106 1190,-49 1333,-49 219,0 1256,-46 1361,35 318,-358 198,-2166 66,-2755 -492,-2187 -2246,-4156 -4670,-4647 -3694,-747 -6784,1812 -7288,4876 z"
   class="fil2" />
   <path
   style="fill:#57f674"
   id="path15"
   d="m 23040,23356 c -105,-81 -1142,-35 -1361,-35 -143,0 -1229,-57 -1333,49 207,117 491,163 521,383 28,212 -63,610 -132,781 -145,359 -604,673 -1021,816 -863,296 -2203,-245 -2837,-606 -996,-566 -1285,-920 -2009,-1660 -602,-616 -1073,-1395 -1378,-2227 -288,-80 -1913,-24 -2342,-27 -63,727 -140,1189 -30,1953 119,832 423,1666 855,2350 229,364 125,358 6,806 -143,537 -349,1149 -457,1688 576,-126 1185,-304 1759,-455 928,-244 264,-129 1559,384 2938,1165 6129,-30 7584,-2601 175,-310 626,-1220 616,-1599 z"
   class="fil1" />
   <path
   style="fill:#fafdfc"
   id="path17"
   d="m 13490,20857 c 305,832 776,1611 1378,2227 724,740 1013,1094 2009,1660 634,361 1974,902 2837,606 417,-143 876,-457 1021,-816 69,-171 160,-569 132,-781 -30,-220 -314,-266 -521,-383 -1025,-394 -1232,-820 -1576,-342 -101,140 -541,697 -654,731 -279,83 -1407,-637 -1662,-885 -274,-266 -1053,-1062 -1132,-1424 -69,-318 590,-635 598,-1052 3,-128 -392,-1029 -468,-1215 -185,-456 -238,-801 -1029,-640 -312,64 -697,558 -825,865 -247,594 -161,826 -108,1449 z"
   class="fil0" />
  </g>
 </g>
</svg>